<svg xmlns="http://www.w3.org/2000/svg" width="64" height="64" viewBox="104 104 168 168" preserveAspectRatio="xMidYMid meet" version="1.0"><defs><clipPath id="9dfd4a5629"><path d="M 102.566406 0.566406 L 260.210938 0.566406 L 260.210938 158.210938 L 102.566406 158.210938 Z M 102.566406 0.566406 " clip-rule="nonzero"/></clipPath><clipPath id="3877a1ed2a"><path d="M 0.480469 87 L 102 87 L 102 137 L 0.480469 137 Z M 0.480469 87 " clip-rule="nonzero"/></clipPath><clipPath id="66f581fe3e"><path d="M 0.480469 39 L 95 39 L 95 103 L 0.480469 103 Z M 0.480469 39 " clip-rule="nonzero"/></clipPath><clipPath id="2c418ab5fb"><path d="M 261 39 L 362.640625 39 L 362.640625 138 L 261 138 Z M 261 39 " clip-rule="nonzero"/></clipPath><clipPath id="f0fb3d9d27"><path d="M 0.359375 48 L 101.640625 48 L 101.640625 98 L 0.359375 98 Z M 0.359375 48 " clip-rule="nonzero"/></clipPath><clipPath id="cc6ed89a46"><path d="M 7 0.601562 L 101.640625 0.601562 L 101.640625 64 L 7 64 Z M 7 0.601562 " clip-rule="nonzero"/></clipPath><clipPath id="24553e4621"><rect x="0" width="102" y="0" height="99"/></clipPath><clipPath id="d00e643f98"><rect x="0" width="363" y="0" height="159"/></clipPath></defs><g transform="matrix(1, 0, 0, 1, 6, 108)"><g clip-path="url(#d00e643f98)"><g clip-path="url(#9dfd4a5629)"><path fill="#7b5cff" d="M 181.496094 0.566406 C 137.90625 0.566406 102.566406 35.90625 102.566406 79.496094 C 102.566406 123.089844 137.90625 158.429688 181.496094 158.429688 C 225.089844 158.429688 260.429688 123.089844 260.429688 79.496094 C 260.429688 35.90625 225.089844 0.566406 181.496094 0.566406 Z M 212.671875 107.871094 C 209.671875 111.785156 205.882812 114.773438 201.429688 116.765625 C 196.957031 118.765625 191.148438 119.785156 184.160156 119.785156 C 175.667969 119.785156 168.648438 118.542969 163.300781 116.089844 C 158.007812 113.660156 153.367188 109.3125 149.492188 103.167969 C 145.621094 97.011719 143.652344 88.980469 143.652344 79.308594 C 143.652344 66.4375 147.105469 56.429688 153.902344 49.554688 C 160.703125 42.695312 170.488281 39.210938 183.011719 39.210938 C 192.8125 39.210938 200.597656 41.199219 206.15625 45.125 C 211.449219 48.871094 215.511719 54.628906 218.226562 62.257812 L 198.496094 66.648438 C 197.777344 64.542969 197.042969 62.996094 196.230469 61.910156 C 194.757812 59.902344 192.925781 58.324219 190.789062 57.238281 C 188.652344 56.15625 186.234375 55.597656 183.601562 55.597656 C 177.65625 55.597656 173.027344 58.027344 169.859375 62.828125 C 167.5 66.320312 166.300781 71.816406 166.300781 79.148438 C 166.300781 88.347656 167.699219 94.527344 170.574219 98.042969 C 173.457031 101.566406 177.550781 103.355469 182.730469 103.355469 C 187.90625 103.355469 191.613281 101.902344 194.222656 99.03125 C 196.570312 96.453125 198.335938 92.777344 199.484375 88.097656 L 219.101562 94.019531 C 217.679688 99.503906 215.511719 104.15625 212.660156 107.882812 Z M 212.671875 107.871094 " fill-opacity="1" fill-rule="nonzero"/></g><g clip-path="url(#3877a1ed2a)"><path fill="#7b5cff" d="M 89.257812 136.308594 L 6.699219 104.800781 C 2.097656 103.046875 -0.207031 97.890625 1.546875 93.289062 C 3.304688 88.691406 8.457031 86.382812 13.058594 88.140625 L 95.617188 119.648438 C 100.21875 121.402344 102.523438 126.558594 100.769531 131.160156 C 99.011719 135.761719 93.859375 138.066406 89.257812 136.308594 Z M 89.257812 136.308594 " fill-opacity="1" fill-rule="nonzero"/></g><g clip-path="url(#66f581fe3e)"><path fill="#7b5cff" d="M 90.078125 56.453125 L 14.164062 101.683594 C 9.933594 104.203125 4.457031 102.816406 1.9375 98.585938 C -0.582031 94.355469 0.804688 88.882812 5.035156 86.359375 L 80.949219 41.132812 C 85.179688 38.613281 90.652344 40 93.175781 44.230469 C 95.695312 48.460938 94.308594 53.933594 90.078125 56.453125 Z M 90.078125 56.453125 " fill-opacity="1" fill-rule="nonzero"/></g><g clip-path="url(#2c418ab5fb)"><g transform="matrix(1, 0, 0, 1, 261, 39)"><g clip-path="url(#24553e4621)"><g clip-path="url(#f0fb3d9d27)"><path fill="#7b5cff" d="M 12.738281 97.308594 L 95.292969 65.800781 C 99.894531 64.046875 102.203125 58.890625 100.445312 54.289062 C 98.691406 49.691406 93.535156 47.382812 88.933594 49.140625 L 6.378906 80.648438 C 1.777344 82.402344 -0.53125 87.558594 1.226562 92.160156 C 2.980469 96.761719 8.136719 99.066406 12.738281 97.308594 Z M 12.738281 97.308594 " fill-opacity="1" fill-rule="nonzero"/></g><g clip-path="url(#cc6ed89a46)"><path fill="#7b5cff" d="M 11.917969 17.453125 L 87.832031 62.683594 C 92.0625 65.203125 97.535156 63.816406 100.054688 59.585938 C 102.578125 55.355469 101.191406 49.882812 96.960938 47.359375 L 21.042969 2.132812 C 16.8125 -0.386719 11.339844 1 8.820312 5.230469 C 6.300781 9.460938 7.6875 14.933594 11.917969 17.453125 Z M 11.917969 17.453125 " fill-opacity="1" fill-rule="nonzero"/></g></g></g></g></g></g></svg>
